<svg xmlns="http://www.w3.org/2000/svg" width="799.925" height="264.234" viewBox="0 0 1329 439">
  <metadata><?xpacket begin="﻿" id="W5M0MpCehiHzreSzNTczkc9d"?>
<x:xmpmeta xmlns:x="adobe:ns:meta/" x:xmptk="Adobe XMP Core 5.6-c142 79.160924, 2017/07/13-01:06:39        ">
   <rdf:RDF xmlns:rdf="http://www.w3.org/1999/02/22-rdf-syntax-ns#">
      <rdf:Description rdf:about=""/>
   </rdf:RDF>
</x:xmpmeta>
                                                                                                    
                                                                                                    
                                                                                                    
                                                                                                    
                                                                                                    
                                                                                                    
                                                                                                    
                                                                                                    
                                                                                                    
                                                                                                    
                                                                                                    
                                                                                                    
                                                                                                    
                                                                                                    
                                                                                                    
                                                                                                    
                                                                                                    
                                                                                                    
                                                                                                    
                                                                                                    
                           
<?xpacket end="w"?></metadata>
<defs>
    <style>
      .cls-1 {
        fill: #0285e8;
      }

      .cls-1, .cls-2 {
        fill-rule: evenodd;
      }

      .cls-2 {
        fill: #013c69;
      }
    </style>
  </defs>
  <path id="Ellipse_1_copy" data-name="Ellipse 1 copy" class="cls-1" d="M288.826,194.378C249.093,338.887,180.456,393.949,177.5,392.085c-2.956,1.864-71.594-53.2-111.326-197.707A115.5,115.5,0,1,1,288.826,194.378ZM172.74,111.005h38c9,0,11.25,3,11.25,13,0,8.749,5.5,10.749,9,10.749s9-1.5,9-11.249c0-15-3.5-30.5-27.5-30.5H172.74c-37,0-58.752,7.5-58.752,45.994v66.992c0,38.5,21.5,46,63.252,46h35.251c24,0,27.5-15.5,27.5-30.247,0-8.249-3.5-11.5-9-11.5-3.5,0-9,2-9,10.748,0,10-2.25,13-11.25,13h-33.5c-35.251,0-45.251-2.5-45.251-28.5V139.5C131.989,113.505,142.489,111.005,172.74,111.005Z"/>
  <path id="NEXT_GENERATION_DISPATCH" data-name="NEXT GENERATION DISPATCH" class="cls-2" d="M326.9,315.158c1.758,0,2.2-1.319,2.2-2.783V270.407c0-2.124-.953-2.857-2.344-2.857-0.879,0-2.2.367-2.2,3v36.255l-26.294-37.72a2.814,2.814,0,0,0-2.491-1.538c-1.684,0-2.124,1.392-2.124,2.857v41.968c0,1.977.879,2.783,2.271,2.783,1.831,0,2.27-1.172,2.27-2.637V275.827l26.953,38.818A2.439,2.439,0,0,0,326.9,315.158ZM346.847,290.7h19.19c1.831,0,3.149-.44,3.149-2.124,0-1.465-.879-2.417-3.149-2.417h-19.19V272.6H374.9c1.685,0,2.856-.439,2.856-2.124,0-1.465-.805-2.417-2.856-2.417H344.43c-1.245,0-2.124.806-2.124,2.93v40.722c0,1.612.44,2.93,2.124,2.93H374.9c1.685,0,2.856-.439,2.856-2.124,0-1.465-.805-2.417-2.856-2.417H346.847V290.7Zm73.044-23.145a2.823,2.823,0,0,0-2.124,1.465l-14.209,19.116-14.136-19.116a2.77,2.77,0,0,0-2.2-1.465,2.225,2.225,0,0,0-2.2,2.344,2.715,2.715,0,0,0,.659,1.611l14.941,19.922-14.941,19.849a2.777,2.777,0,0,0-.659,1.758,2.231,2.231,0,0,0,2.2,2.124,2.832,2.832,0,0,0,2.2-1.319l14.136-19.189,14.209,19.189a2.777,2.777,0,0,0,2.124,1.319,2.188,2.188,0,0,0,2.27-2.124,2.777,2.777,0,0,0-.659-1.758l-14.941-19.849L421.5,271.505a2.881,2.881,0,0,0,.659-1.611A2.251,2.251,0,0,0,419.891,267.55Zm37.741,0.513H430.459c-2.344,0-2.783,1.392-2.783,2.271s0.439,2.27,2.783,2.27h11.133v39.917a2.308,2.308,0,0,0,2.417,2.637,2.433,2.433,0,0,0,2.636-2.637V272.6h10.987c2.343,0,2.783-1.318,2.783-2.2C460.415,269.088,459.609,268.063,457.632,268.063Zm61.712,28.931v9.155c0,3-.733,3.955-3.662,3.955H504.988c-8.716,0-12.011-.806-12.011-8.716V281.32c0-7.91,3.369-8.716,12.89-8.716h9.815c2.929,0,3.662,1.1,3.662,4.1,0,2.05.879,2.856,2.27,2.856s2.271-.806,2.271-3c0-4.1-.879-8.5-7.691-8.5H505.867c-11.133,0-17.431,1.9-17.431,13.11v20.362c0,11.133,6.225,13.11,16.552,13.11h11.206c6.812,0,7.691-4.248,7.691-8.2V292.453H509.9c-1.905,0-3.15.439-3.15,2.343,0,1.319.952,2.2,3.15,2.2h9.448Zm21.261-6.3h19.19c1.831,0,3.149-.44,3.149-2.124,0-1.465-.879-2.417-3.149-2.417h-19.19V272.6h28.052c1.684,0,2.856-.439,2.856-2.124,0-1.465-.805-2.417-2.856-2.417H538.188c-1.245,0-2.124.806-2.124,2.93v40.722c0,1.612.44,2.93,2.124,2.93h30.469c1.684,0,2.856-.439,2.856-2.124,0-1.465-.805-2.417-2.856-2.417H540.605V290.7Zm74.8,24.463c1.758,0,2.2-1.319,2.2-2.783V270.407c0-2.124-.952-2.857-2.344-2.857-0.879,0-2.2.367-2.2,3v36.255l-26.294-37.72a2.813,2.813,0,0,0-2.49-1.538c-1.685,0-2.124,1.392-2.124,2.857v41.968c0,1.977.878,2.783,2.27,2.783,1.831,0,2.271-1.172,2.271-2.637V275.827l26.953,38.818A2.434,2.434,0,0,0,615.406,315.158ZM635.349,290.7h19.19c1.831,0,3.149-.44,3.149-2.124,0-1.465-.879-2.417-3.149-2.417h-19.19V272.6H663.4c1.685,0,2.857-.439,2.857-2.124,0-1.465-.806-2.417-2.857-2.417H632.932c-1.245,0-2.124.806-2.124,2.93v40.722c0,1.612.44,2.93,2.124,2.93H663.4c1.685,0,2.857-.439,2.857-2.124,0-1.465-.806-2.417-2.857-2.417H635.349V290.7Zm65.72-.147c5.127-1.245,8.2-4.98,8.2-10.913,0-9.375-6.372-11.572-16.773-11.572H679.023c-1.245,0-2.124.806-2.124,2.93v41.528c0,2.2,1.318,2.637,2.2,2.637,1.9,0,2.344-1.392,2.344-2.637V291.427h13.7c6.812,5.054,10.108,19.7,10.181,21.094,0.073,1.172.659,2.637,2.2,2.637a2.436,2.436,0,0,0,2.344-2.637C709.858,311.569,706.269,296.335,701.069,290.548Zm-19.629-3.662V272.97H692.5c8.423,0,12.232.806,12.232,6.958,0,6.006-3.516,6.958-12.232,6.958H681.44Zm57.589-18.823h-5.273l-16.992,44.312a4.041,4.041,0,0,0-.22,1.245,2.254,2.254,0,0,0,2.27,2.2,2.761,2.761,0,0,0,2.344-1.9l5.127-13.477H746.5l5.127,13.477a2.536,2.536,0,0,0,2.344,1.9,2.253,2.253,0,0,0,2.27-2.2,4.041,4.041,0,0,0-.22-1.245Zm5.713,27.832h-16.7l8.276-21.24Zm46.017-27.832H763.587c-2.344,0-2.784,1.392-2.784,2.271s0.44,2.27,2.784,2.27h11.132v39.917a2.308,2.308,0,0,0,2.417,2.637,2.433,2.433,0,0,0,2.637-2.637V272.6h10.986c2.344,0,2.784-1.318,2.784-2.2C793.543,269.088,792.737,268.063,790.759,268.063Zm16.355,44.458V270.26c0-2.27-1.392-2.71-2.271-2.71s-2.27.44-2.27,2.71v42.261c0,2.2,1.318,2.637,2.2,2.637C806.674,315.158,807.114,313.766,807.114,312.521Zm29.537,2.783c10.254,0,17.725-6.372,17.725-17.431V284.835c0-11.059-7.471-17.431-17.725-17.431-10.327,0-17.724,6.372-17.724,17.431v13.038C818.927,308.932,826.324,315.3,836.651,315.3Zm0-43.359c8.643,0,13.184,4.907,13.184,13.037v12.744c0,8.2-4.541,13.037-13.184,13.037s-13.183-4.834-13.183-13.037V284.982C823.468,276.852,828.009,271.945,836.651,271.945Zm62.79,43.213c1.758,0,2.2-1.319,2.2-2.783V270.407c0-2.124-.952-2.857-2.344-2.857-0.879,0-2.2.367-2.2,3v36.255L870.8,269.088a2.812,2.812,0,0,0-2.49-1.538c-1.685,0-2.124,1.392-2.124,2.857v41.968c0,1.977.879,2.783,2.27,2.783,1.831,0,2.271-1.172,2.271-2.637V275.827l26.953,38.818A2.437,2.437,0,0,0,899.441,315.158Zm70.794-33.765c0-11.279-6.226-13.33-16.48-13.33H936.91c-1.245,0-2.124.806-2.124,2.93v40.722c0,1.538.439,2.93,2.124,2.93h15.967c11.132,0,17.358-2.051,17.358-13.33V281.393Zm-4.541,19.849c0,8.13-3.369,8.862-12.817,8.862h-13.55V272.6h14.428c8.57,0,11.939.732,11.939,8.862v19.776Zm21.335,11.279V270.26c0-2.27-1.392-2.71-2.271-2.71s-2.27.44-2.27,2.71v42.261c0,2.2,1.318,2.637,2.2,2.637C986.589,315.158,987.029,313.766,987.029,312.521Zm16.061-32.886c0-2.71,1.46-7.617,7.62-7.617h7.47c9.74,0,12.81.659,12.81,8.862,0,1.685.88,2.784,2.28,2.784,1.46,0,2.34-1.026,2.34-2.784,0-11.572-6.45-13.4-17.43-13.4h-5.57c-11.06,0-14.061,6.372-14.061,12.012,0,6.665,2.641,10.254,9.811,11.719l18.61,3.808c1.39,0.293,4.1,2.783,4.1,7.91,0,2.784-1.32,7.764-7.11,7.764h-8.05c-9.6,0-12.75-.806-12.75-9.009,0-1.684-.88-2.783-2.19-2.783-1.542,0-2.421,1.025-2.421,2.783,0,11.572,6.371,13.55,17.361,13.55h6.59c10.25,0,13.11-6.519,13.11-12.158,0-5.493-2.2-11.28-9.67-12.744l-18.75-3.662C1005.07,286.154,1003.09,283.444,1003.09,279.635Zm48.58,32.886v-21.46h14.58c8.35,0,13.25-4.028,13.25-11.5,0-9.3-6.37-11.5-16.62-11.5h-13.63c-1.24,0-2.12.806-2.12,2.93v41.528c0,2.2,1.32,2.637,2.2,2.637C1051.23,315.158,1051.67,313.766,1051.67,312.521Zm11.21-26h-11.21V272.6h11.21c8.49,0,12.08.879,12.08,6.958C1074.96,285.275,1072.1,286.52,1062.88,286.52Zm44.26-18.457h-5.28l-16.99,44.312a3.954,3.954,0,0,0-.22,1.245,2.251,2.251,0,0,0,2.27,2.2,2.758,2.758,0,0,0,2.34-1.9l5.13-13.477h20.22l5.12,13.477a2.542,2.542,0,0,0,2.35,1.9,2.257,2.257,0,0,0,2.27-2.2,4.261,4.261,0,0,0-.22-1.245Zm5.71,27.832h-16.7l8.28-21.24Zm46.02-27.832h-27.18c-2.34,0-2.78,1.392-2.78,2.271s0.44,2.27,2.78,2.27h11.14v39.917c0,2.2,1.46,2.637,2.41,2.637a2.435,2.435,0,0,0,2.64-2.637V272.6h10.99c2.34,0,2.78-1.318,2.78-2.2C1161.65,269.088,1160.84,268.063,1158.87,268.063Zm38.62,46.582c6.81,0,7.69-4.394,7.69-8.5,0-2.2-.88-3-2.27-3-0.88,0-2.27.439-2.27,2.783,0,3.076-.74,4.175-3.67,4.175h-9.81c-9.52,0-12.89-.732-12.89-8.862V281.466c0-8.056,3.37-8.862,12.01-8.862h10.69c2.79,0,3.67.952,3.67,4.175,0,2.344,1.39,2.783,2.27,2.783,1.83,0,2.27-1.465,2.27-2.93,0-4.174-.88-8.569-7.69-8.569h-11.21c-10.33,0-16.55,2.051-16.55,13.33v19.922c0,11.279,6.22,13.33,17.43,13.33h10.33Zm23.31-2.27V291.793h26.36v20.582c0,2.417,1.4,2.783,2.35,2.783,1.76,0,2.2-1.319,2.2-2.783V270.407c0-2.124-.96-2.857-2.35-2.857-1.76,0-2.2,1.465-2.2,2.857v16.845H1220.8V270.407c0-1.538-.59-2.857-2.42-2.857-1.68,0-2.12,1.392-2.12,2.857v41.968c0,1.977.88,2.783,2.27,2.783C1220.14,315.158,1220.8,314.132,1220.8,312.375Z"/>
  <path id="ADvanced" class="cls-1" d="M352.9,108.781H338.832L293.52,226.945a10.825,10.825,0,0,0-.586,3.321c0,4.687,4.492,5.859,6.054,5.859,2.539,0,4.883-1.953,6.25-5.078l13.672-35.938h53.906l13.672,35.938c1.172,3.125,3.321,5.078,6.25,5.078,1.563,0,6.055-1.172,6.055-5.859a10.825,10.825,0,0,0-.586-3.321ZM368.129,183H323.6l22.07-56.641Zm151.289-38.672c0-30.078-16.6-35.547-43.945-35.547H430.551c-3.321,0-5.664,2.149-5.664,7.813V225.188c0,4.1,1.172,7.812,5.664,7.812h42.578c29.687,0,46.289-5.469,46.289-35.547V144.328Zm-12.109,52.93c0,21.68-8.985,23.633-34.18,23.633H437v-100h38.477c22.851,0,31.836,1.953,31.836,23.632v52.735ZM579.887,233h16.406l37.5-84.766a6.5,6.5,0,0,0,.781-3.32c0-4.3-3.125-5.273-5.664-5.273s-4.883,1.172-6.445,4.687L588.676,220.7l-32.617-76.172c-0.977-1.953-2.539-4.882-6.446-4.882-2.343,0-5.664,1.172-5.664,5.468a6.712,6.712,0,0,0,.781,3.125Zm123.359-46.484H730.98v1.953c0,16.015-6.445,32.422-34.179,32.422H678.637c-4.492,0-9.766-5.274-9.766-11.524C668.871,188.469,677.465,186.516,703.246,186.516Zm0-12.11c-29.492,0-46.484,5.86-46.484,33.985,0,15.234,9.375,24.609,21.875,24.609H696.8c13.672,0,26.172-3.32,34.179-10.937v4.492c0,3.906,1.172,7.812,6.055,7.812,3.711,0,6.055-2.148,6.055-7.422V167.961c0-17.578-4.1-25-20.508-25H692.309c-20.508,0-35.547,6.25-35.547,22.852,0,6.64,3.515,7.812,5.859,7.812,5.078,0,6.25-3.32,6.25-7.812,0-6.446,5.664-10.743,24.805-10.743h27.539c7.812,0,9.765,2.539,9.765,9.571v9.765H703.246ZM822.9,155.07h5.664c25.2,0,34.179,1.758,34.179,22.852v49.023c0,6.446,3.711,7.422,6.25,7.422,4.688,0,5.86-3.515,5.86-7.422V177.531c0-29.1-16.6-34.57-46.289-34.57H822.9c-13.868,0-26.368,3.516-34.375,10.937v-4.3c0-5.664-2.54-8.008-6.446-8.008-4.492,0-5.664,3.711-5.664,7.617v77.734c0,5.274,2.344,7.422,6.055,7.422,4.3,0,6.055-2.734,6.055-7.422V188.078C788.52,171.477,794.965,155.07,822.9,155.07ZM979.457,233c18.164,0,20.508-11.719,20.508-22.656,0-5.86-2.344-8.008-6.055-8.008-2.344,0-6.055,1.172-6.055,7.422,0,8.2-1.953,11.133-9.765,11.133H951.918c-25.781,0-34.375-1.953-34.375-22.852V177.922c0-20.9,8.594-22.852,34.375-22.852H978.09c7.422,0,9.765,2.539,9.765,11.133,0,6.25,3.711,7.422,6.055,7.422,4.883,0,6.055-3.906,6.055-7.812,0-10.938-2.344-22.852-20.508-22.852H951.918c-29.883,0-46.484,5.469-46.484,34.57v20.9c0,29.1,16.6,34.57,46.484,34.57h27.539Zm147.383-55.469c0-29.1-16.6-34.57-46.29-34.57h-5.66c-29.89,0-46.49,5.469-46.49,34.57v20.9c0,29.1,16.6,34.57,46.49,34.57h31.44c18.17,0,20.51-11.719,20.51-22.656,0-5.86-2.34-8.008-6.05-8.008-2.35,0-6.06,1.172-6.06,7.422,0,8.2-1.95,11.133-9.77,11.133h-30.07c-25.78,0-34.38-1.953-34.38-22.852V186.125h86.33v-8.594Zm-46.29-22.461c24.81,0,33.59,2.149,34.18,18.946h-74.22c0.59-16.8,9.38-18.946,34.38-18.946h5.66Zm87.23,42.969V177.922c0-21.094,8.98-22.852,33.79-22.852H1242v33.2c0,16.6-6.45,32.618-34.38,32.618h-5.66C1176.76,220.891,1167.78,219.133,1167.78,198.039Zm-12.11-20.508v20.9c0,29.1,16.6,34.57,46.29,34.57h5.66c13.87,0,26.37-3.516,34.38-10.937v4.492c0,5.859,2.34,7.812,6.05,7.812s6.06-2.148,6.06-7.422V115.227c0-4.1-1.18-7.813-5.67-7.813-5.08,0-6.44,3.711-6.44,7.813v27.734h-40.43C1172.27,142.961,1155.67,148.43,1155.67,177.531Z"/>
</svg>
